#!OML:ASF E:\Steps\Project 1\Capture day 1\Session 2\Subject.ASF
:FULLY-SPECIFIED
:DEGREES
533
root 8.91877 17.3612 -1.50053 -152.875 -0.155176 177.942
lowerback -20.7177 -0.00652064 -9.80502
upperback 1.22838 2.52882 -3.37433
thorax 12.8439 0.488584 2.5185
lowerneck -3.80203 -2.40394 -2.04093
upperneck 18.8344 -5.56751 6.72478
head 6.58191 -2.77926 2.05832
rclavicle -9.93923e-015 -1.27222e-014
rhumerus -33.3171 -4.52987 -85.1367
rradius 46.1525
rwrist -5.8965
rhand -5.78572 -55.7421
rfingers 7.12502
rthumb 20.0383 -84.7289
lclavicle -9.93923e-015 -1.27222e-014
lhumerus -31.6642 5.73921 77.2404
lradius 32.8542
lwrist -0.962627
lhand -21.5873 -14.0889
lfingers 7.12502
lthumb 4.80725 15.8366
rfemur -21.89 6.09644 18.9556
rtibia 26.842
rfoot -2.0821 -2.97479
rtoes -36.3937
lfemur -58.501 -6.51599 -21.0882
ltibia 44.8642
lfoot -10.5442 -0.873777
ltoes -15.6032
534
root 8.89948 17.4209 -1.56931 -152.728 0.0147239 178.205
lowerback -20.7123 0.0408441 -9.59912
upperback 1.17521 2.53491 -3.34907
thorax 12.7837 0.510065 2.43477
lowerneck -3.25045 -2.27442 -1.89093
upperneck 17.945 -5.24975 6.65926
head 6.18173 -2.62585 2.04782
rclavicle -2.42517e-014 5.08889e-014
rhumerus -33.6399 -4.75613 -84.9199
rradius 46.1489
rwrist -6.03419
rhand -5.62508 -56.1131
rfingers 7.12502
rthumb 20.1927 -85.0835
lclavicle -2.42517e-014 5.08889e-014
lhumerus -31.6013 5.02407 77.6031
lradius 33.7902
lwrist -0.668858
lhand -21.6083 -14.2791
lfingers 7.12502
lthumb 4.78695 15.6469
rfemur -23.4931 5.57773 19.1768
rtibia 29.8242
rfoot -1.44885 -3.11143
rtoes -37.1332
lfemur -57.8387 -6.38729 -20.8539
ltibia 43.9194
lfoot -10.4192 -0.66947
ltoes -18.1948
535
root 8.87914 17.4779 -1.63929 -152.682 0.222378 178.208
lowerback -20.7494 0.0283444 -9.69189
upperback 1.21904 2.55109 -3.37544
thorax 12.8528 0.506725 2.46153
lowerneck -3.3703 -2.37432 -1.75278
upperneck 17.9357 -5.34062 6.41199
head 6.19492 -2.6695 1.93842
rclavicle 1.51076e-014 5.08889e-014
rhumerus -33.9188 -5.04464 -84.6929
rradius 46.1945
rwrist -6.31451
rhand -5.63293 -56.0658
rfingers 7.12502
rthumb 20.1852 -85.0371
lclavicle 1.51076e-014 5.08889e-014
lhumerus -31.2308 4.33643 77.9591
lradius 34.3812
lwrist -0.365097
lhand -21.6372 -14.2738
lfingers 7.12502
lthumb 4.75912 15.6528
rfemur -25.1613 4.9198 19.1205
rtibia 33.2286
rfoot -1.22985 -3.35649
rtoes -37.6898
lfemur -57.0291 -6.42603 -20.9033
ltibia 43.0098
lfoot -10.4376 -0.50227
ltoes -18.7084
536
root 8.86077 17.5329 -1.70932 -152.664 0.463453 178.084
lowerback -20.7602 -0.000783654 -9.93765
upperback 1.2243 2.57213 -3.45443
thorax 12.8577 0.496643 2.51463
lowerneck -2.85335 -2.31652 -1.39992
upperneck 17.3032 -5.16755 6.1909
head 5.88492 -2.58835 1.83299
rclavicle -2.78299e-015 -2.94201e-014
rhumerus -34.2149 -5.4157 -84.4792
rradius 46.0233
rwrist -6.55963
rhand -5.7977 -55.651
rfingers 7.12502
rthumb 20.0268 -84.639
lclavicle -2.78299e-015 -2.94201e-014
lhumerus -30.9363 3.53263 78.268
lradius 35.0027
lwrist -0.0104261
lhand -21.706 -14.0803
lfingers 7.12502
lthumb 4.69263 15.8477
rfemur -27.1531 4.32752 18.9094
rtibia 37.3788
rfoot -1.88883 -3.70702
rtoes -38.1693
lfemur -56.2323 -6.50379 -21.1074
ltibia 42.1795
lfoot -10.5193 -0.331286
ltoes -18.0349
537
root 8.84276 17.5884 -1.77695 -152.759 0.610097 178.151
lowerback -20.5598 -0.471888 -9.75806
upperback 1.21972 2.63609 -3.48123
thorax 12.7938 0.860615 2.47392
lowerneck -3.27508 -2.3447 -1.75478
upperneck 17.6602 -5.31565 6.68267
head 6.09705 -2.64301 2.02883
rclavicle 6.75868e-015 -1.33583e-013
rhumerus -34.4133 -5.70999 -84.262
rradius 45.8343
rwrist -6.71513
rhand -5.98633 -55.2063
rfingers 7.12502
rthumb 19.8455 -84.2131
lclavicle 6.75868e-015 -1.33583e-013
lhumerus -30.7427 2.67943 78.5901
lradius 35.8297
lwrist 0.382729
lhand -22.2255 -14.5888
lfingers 7.12502
lthumb 4.19099 15.3498
rfemur -28.4544 3.84045 18.9409
rtibia 40.5117
rfoot -2.44547 -4.1438
rtoes -39.3781
lfemur -55.3418 -6.52365 -21.0789
ltibia 41.3111
lfoot -10.5193 -0.274474
ltoes -16.5852
538
root 8.82366 17.6392 -1.8448 -152.881 0.678491 178.286
lowerback -20.3538 -0.534093 -9.68726
upperback 1.25601 2.48903 -3.40682
thorax 12.7304 0.791531 2.46835
lowerneck -3.48251 -2.28527 -1.74519
upperneck 17.7528 -5.20962 6.54156
head 6.15373 -2.5922 1.98598
rclavicle -1.51076e-014 8.50798e-014
rhumerus -34.6075 -5.88172 -83.9896
rradius 45.7543
rwrist -6.74202
rhand -5.99481 -54.8717
rfingers 7.12502
rthumb 19.8373 -83.8794
lclavicle -1.51076e-014 8.50798e-014
lhumerus -30.5701 2.05369 78.9224
lradius 36.6332
lwrist 0.616335
lhand -22.6438 -14.8593
lfingers 7.12502
lthumb 3.78706 15.0868
rfemur -29.8603 3.323 19.0952
rtibia 43.8921
rfoot -3.17847 -4.38275
rtoes -40.2784
lfemur -54.3698 -6.53947 -20.9922
ltibia 40.3224
lfoot -10.3744 -0.24436
ltoes -15.6009
539
root 8.80589 17.6862 -1.90792 -152.899 0.792809 178.379
lowerback -20.3134 -0.616818 -9.65054
upperback 1.25435 2.34762 -3.33258
thorax 12.7173 0.7232 2.48739
lowerneck -3.36885 -2.28202 -1.75399
upperneck 17.6867 -5.14231 6.26274
head 6.10315 -2.5801 1.9059
rclavicle -1.98785e-015 -1.90833e-014
rhumerus -34.7833 -6.09911 -83.7175
rradius 45.604
rwrist -6.84951
rhand -5.87172 -54.8567
rfingers 7.12502
rthumb 19.9557 -83.852
lclavicle -1.98785e-015 -1.90833e-014
lhumerus -30.401 1.68547 79.1578
lradius 37.2935
lwrist 0.479103
lhand -22.4441 -14.5366
lfingers 7.12502
lthumb 3.97993 15.406
rfemur -31.5109 2.90317 19.1857
rtibia 47.4149
rfoot -3.73146 -4.35715
rtoes -39.8357
lfemur -53.5284 -6.50241 -20.9793
ltibia 39.3418
lfoot -10.2692 -0.153669
ltoes -15.4532
540
root 8.78712 17.7335 -1.97255 -153.03 0.916922 178.501
lowerback -20.258 -0.64925 -9.55749
upperback 1.35026 2.26316 -3.28023
thorax 12.8057 0.676512 2.4659
lowerneck -3.69977 -2.30413 -1.95454
upperneck 17.9769 -5.18902 6.28677
head 6.25958 -2.60503 1.93722
rclavicle 1.47101e-014 -6.44062e-014
rhumerus -34.8947 -6.30658 -83.4986
rradius 45.5381
rwrist -7.08186
rhand -5.74176 -55.1898
rfingers 7.12502
rthumb 20.0806 -84.1721
lclavicle 1.47101e-014 -6.44062e-014
lhumerus -30.1061 1.29162 79.3385
lradius 37.8387
lwrist 0.364798
lhand -22.3389 -14.6156
lfingers 7.12502
lthumb 4.08155 15.325
rfemur -32.9971 2.5382 19.3049
rtibia 50.7149
rfoot -3.9006 -4.09331
rtoes -39.6218
lfemur -52.5432 -6.47128 -20.9377
ltibia 38.3581
lfoot -10.2808 -0.0523784
ltoes -15.5763
541
root 8.76996 17.7785 -2.04117 -153.267 0.960117 178.579
lowerback -20.1036 -0.745137 -9.55137
upperback 1.4605 2.10078 -3.20526
thorax 12.859 0.588228 2.49328
lowerneck -3.20063 -2.05445 -1.60304
upperneck 17.0963 -4.68349 5.95798
head 5.85794 -2.36115 1.82024
rclavicle -2.78299e-015 4.77083e-015
rhumerus -35.0158 -6.31588 -83.2857
rradius 45.3922
rwrist -7.23925
rhand -5.83091 -55.101
rfingers 7.12502
rthumb 19.9949 -84.0923
lclavicle -2.78299e-015 4.77083e-015
lhumerus -29.8821 0.85229 79.515
lradius 38.3978
lwrist 0.467827
lhand -22.5601 -14.6458
lfingers 7.12502
lthumb 3.8679 15.2989
rfemur -34.3565 2.12974 19.4089
rtibia 53.9353
rfoot -4.31924 -3.82035
rtoes -39.6505
lfemur -51.4286 -6.52199 -20.9278
ltibia 37.3635
lfoot -10.2641 0.0396818
ltoes -16.3896
542
root 8.75306 17.8228 -2.10415 -153.477 0.931921 178.576
lowerback -19.8862 -0.874898 -9.54843
upperback 1.50624 1.89641 -3.18214
thorax 12.8079 0.493076 2.45239
lowerneck -3.86172 -2.07018 -1.9008
upperneck 18.0515 -4.87268 6.24403
head 6.29483 -2.44996 1.93351
rclavicle 4.77083e-015 3.65764e-014
rhumerus -35.1097 -6.54623 -83.0794
rradius 45.0427
rwrist -7.23313
rhand -5.9414 -54.7633
rfingers 7.12502
rthumb 19.8887 -83.7656
lclavicle 4.77083e-015 3.65764e-014
lhumerus -29.6815 0.454718 79.6223
lradius 38.8847
lwrist 0.605145
lhand -22.6512 -14.7151
lfingers 7.12502
lthumb 3.77996 15.2311
rfemur -35.8833 1.72164 19.4461
rtibia 57.2937
rfoot -5.07738 -3.71511
rtoes -38.5741
lfemur -50.4184 -6.62985 -20.9963
ltibia 36.4681
lfoot -10.1672 0.112257
ltoes -20.6182
543
root 8.73593 17.868 -2.16519 -153.655 0.858701 178.544
lowerback -19.7265 -0.971071 -9.49638
upperback 1.59281 1.7474 -3.2202
thorax 12.8354 0.42646 2.3327
lowerneck -3.68 -2.01177 -1.52976
upperneck 17.7433 -4.74336 6.01127
head 6.14748 -2.38164 1.81026
rclavicle -4.37326e-015 0
rhumerus -35.2357 -7.12905 -82.8752
rradius 44.8427
rwrist -7.11429
rhand -5.83385 -54.5531
rfingers 7.12502
rthumb 19.9921 -83.5446
lclavicle -4.37326e-015 0
lhumerus -29.266 0.0301996 79.6779
lradius 39.2405
lwrist 0.75068
lhand -22.6245 -14.817
lfingers 7.12502
lthumb 3.80569 15.1288
rfemur -37.386 1.25715 19.5305
rtibia 60.3935
rfoot -5.71473 -3.7267
rtoes -39.1814
lfemur -49.4693 -6.75215 -21.0924
ltibia 35.6286
lfoot -9.70838 0.111377
ltoes -26.5865
544
root 8.72108 17.9103 -2.22812 -153.751 0.719388 178.593
lowerback -19.61 -1.12966 -9.40923
upperback 1.61679 1.49029 -3.16643
thorax 12.8225 0.309416 2.26553
lowerneck -3.15364 -1.90548 -1.29549
upperneck 17.0708 -4.50106 5.84084
head 5.82629 -2.26979 1.74365
rclavicle -5.1684e-015 6.36111e-015
rhumerus -35.5445 -7.41868 -82.6491
rradius 44.7853
rwrist -7.02048
rhand -5.72731 -54.3044
rfingers 7.12502
rthumb 20.0945 -83.2852
lclavicle -5.1684e-015 6.36111e-015
lhumerus -28.9943 -0.306058 79.7499
lradius 39.6933
lwrist 0.919486
lhand -22.4253 -14.1265
lfingers 7.12502
lthumb 3.99806 15.8158
rfemur -38.8707 0.772247 19.7601
rtibia 63.212
rfoot -5.70781 -4.008
rtoes -39.1089
lfemur -48.5845 -6.81046 -21.1085
ltibia 34.6998
lfoot -9.3173 -0.010052
ltoes -26.2625
545
root 8.70164 17.9514 -2.29169 -153.891 0.670843 178.779
lowerback -19.5072 -1.27398 -9.20665
upperback 1.64997 1.20378 -3.02531
thorax 12.8283 0.176724 2.22244
lowerneck -3.09063 -1.77034 -1.58423
upperneck 17.0999 -4.35395 6.10525
head 5.82867 -2.2065 1.88471
rclavicle -5.96354e-015 5.24792e-014
rhumerus -35.7137 -7.45763 -82.3881
rradius 44.5666
rwrist -6.99157
rhand -5.86183 -54.3464
rfingers 7.12502
rthumb 19.9652 -83.3407
lclavicle -5.96354e-015 5.24792e-014
lhumerus -28.7748 -0.45384 79.8267
lradius 40.1674
lwrist 0.966628
lhand -22.0782 -13.4082
lfingers 7.12502
lthumb 4.33323 16.5275
rfemur -40.3849 0.491581 20.005
rtibia 66.1928
rfoot -6.42819 -4.12114
rtoes -37.7009
lfemur -47.6488 -6.7282 -21.0458
ltibia 33.7393
lfoot -9.57757 -0.146609
ltoes -19.8262
546
root 8.68054 17.9931 -2.35734 -154.097 0.666315 178.944
lowerback -19.4757 -1.35398 -9.02678
upperback 1.79319 1.02666 -2.90786
thorax 12.9928 0.0839343 2.19608
lowerneck -3.23125 -1.70563 -1.72079
upperneck 17.1535 -4.27074 6.18924
head 5.8701 -2.16555 1.93726
rclavicle 5.96354e-015 -5.08889e-014
rhumerus -35.6728 -7.69894 -82.0674
rradius 44.241
rwrist -6.87765
rhand -5.95109 -54.7505
rfingers 7.12502
rthumb 19.8794 -83.7538
lclavicle 5.96354e-015 -5.08889e-014
lhumerus -28.2664 -0.461058 79.885
lradius 40.2816
lwrist 0.836999
lhand -22.1823 -13.7003
lfingers 7.12502
lthumb 4.23271 16.2374
rfemur -41.9 0.21866 20.2378
rtibia 69.111
rfoot -7.1696 -4.22717
rtoes -38.2209
lfemur -46.6694 -6.62797 -21.029
ltibia 32.8614
lfoot -9.70117 -0.152603
ltoes -15.5632
